<?xml version="1.0" encoding="utf-8" standalone="no"?>
<!DOCTYPE svg PUBLIC "-//W3C//DTD SVG 1.1//EN"
  "http://www.w3.org/Graphics/SVG/1.1/DTD/svg11.dtd">
<svg xmlns:xlink="http://www.w3.org/1999/xlink" width="460.8pt" height="345.6pt" viewBox="0 0 460.8 345.6" xmlns="http://www.w3.org/2000/svg" version="1.1">
 <metadata>
  <rdf:RDF xmlns:dc="http://purl.org/dc/elements/1.1/" xmlns:cc="http://creativecommons.org/ns#" xmlns:rdf="http://www.w3.org/1999/02/22-rdf-syntax-ns#">
   <cc:Work>
    <dc:type rdf:resource="http://purl.org/dc/dcmitype/StillImage"/>
    <dc:date>2026-04-21T10:01:07.300294</dc:date>
    <dc:format>image/svg+xml</dc:format>
    <dc:creator>
     <cc:Agent>
      <dc:title>Matplotlib v3.10.8, https://matplotlib.org/</dc:title>
     </cc:Agent>
    </dc:creator>
   </cc:Work>
  </rdf:RDF>
 </metadata>
 <defs>
  <style type="text/css">*{stroke-linejoin: round; stroke-linecap: butt}</style>
 </defs>
 <g id="figure_1">
  <g id="patch_1">
   <path d="M 0 345.6 
L 460.8 345.6 
L 460.8 0 
L 0 0 
L 0 345.6 
z
" style="fill: none"/>
  </g>
  <g id="axes_1">
   <g id="patch_2">
    <path d="M 57.6 307.584 
L 414.72 307.584 
L 414.72 41.472 
L 57.6 41.472 
L 57.6 307.584 
z
" style="fill: none"/>
   </g>
   <g id="matplotlib.axis_1">
    <g id="xtick_1">
     <g id="line2d_1">
      <defs>
       <path id="m3774e5e546" d="M 0 0 
L 0 3.5 
" style="stroke: #666666; stroke-width: 0.8"/>
      </defs>
      <g>
       <use xlink:href="#m3774e5e546" x="109.905455" y="307.584" style="fill: #666666; stroke: #666666; stroke-width: 0.8"/>
      </g>
     </g>
     <g id="text_1">
      <!-- 2 -->
      <g style="fill: #666666" transform="translate(106.895298 322.235562) scale(0.1 -0.1)">
       <defs>
        <path id="DejaVuSansMono-32" d="M 1166 531 
L 3309 531 
L 3309 0 
L 475 0 
L 475 531 
Q 1059 1147 1496 1619 
Q 1934 2091 2100 2284 
Q 2413 2666 2522 2902 
Q 2631 3138 2631 3384 
Q 2631 3775 2401 3997 
Q 2172 4219 1772 4219 
Q 1488 4219 1175 4116 
Q 863 4013 513 3803 
L 513 4441 
Q 834 4594 1145 4672 
Q 1456 4750 1759 4750 
Q 2444 4750 2861 4386 
Q 3278 4022 3278 3431 
Q 3278 3131 3139 2831 
Q 3000 2531 2688 2169 
Q 2513 1966 2180 1606 
Q 1847 1247 1166 531 
z
" transform="scale(0.015625)"/>
       </defs>
       <use xlink:href="#DejaVuSansMono-32"/>
      </g>
     </g>
    </g>
    <g id="xtick_2">
     <g id="line2d_2">
      <g>
       <use xlink:href="#m3774e5e546" x="182.050909" y="307.584" style="fill: #666666; stroke: #666666; stroke-width: 0.8"/>
      </g>
     </g>
     <g id="text_2">
      <!-- 4 -->
      <g style="fill: #666666" transform="translate(179.040753 322.235562) scale(0.1 -0.1)">
       <defs>
        <path id="DejaVuSansMono-34" d="M 2297 4091 
L 825 1625 
L 2297 1625 
L 2297 4091 
z
M 2194 4666 
L 2925 4666 
L 2925 1625 
L 3547 1625 
L 3547 1113 
L 2925 1113 
L 2925 0 
L 2297 0 
L 2297 1113 
L 319 1113 
L 319 1709 
L 2194 4666 
z
" transform="scale(0.015625)"/>
       </defs>
       <use xlink:href="#DejaVuSansMono-34"/>
      </g>
     </g>
    </g>
    <g id="xtick_3">
     <g id="line2d_3">
      <g>
       <use xlink:href="#m3774e5e546" x="254.196364" y="307.584" style="fill: #666666; stroke: #666666; stroke-width: 0.8"/>
      </g>
     </g>
     <g id="text_3">
      <!-- 6 -->
      <g style="fill: #666666" transform="translate(251.186207 322.235562) scale(0.1 -0.1)">
       <defs>
        <path id="DejaVuSansMono-36" d="M 3097 4563 
L 3097 3981 
Q 2900 4097 2678 4158 
Q 2456 4219 2216 4219 
Q 1616 4219 1306 3767 
Q 997 3316 997 2438 
Q 1147 2750 1412 2917 
Q 1678 3084 2022 3084 
Q 2697 3084 3067 2670 
Q 3438 2256 3438 1497 
Q 3438 741 3056 325 
Q 2675 -91 1984 -91 
Q 1172 -91 794 492 
Q 416 1075 416 2328 
Q 416 3509 870 4129 
Q 1325 4750 2188 4750 
Q 2419 4750 2650 4701 
Q 2881 4653 3097 4563 
z
M 1972 2591 
Q 1569 2591 1337 2300 
Q 1106 2009 1106 1497 
Q 1106 984 1337 693 
Q 1569 403 1972 403 
Q 2391 403 2603 679 
Q 2816 956 2816 1497 
Q 2816 2041 2603 2316 
Q 2391 2591 1972 2591 
z
" transform="scale(0.015625)"/>
       </defs>
       <use xlink:href="#DejaVuSansMono-36"/>
      </g>
     </g>
    </g>
    <g id="xtick_4">
     <g id="line2d_4">
      <g>
       <use xlink:href="#m3774e5e546" x="326.341818" y="307.584" style="fill: #666666; stroke: #666666; stroke-width: 0.8"/>
      </g>
     </g>
     <g id="text_4">
      <!-- 8 -->
      <g style="fill: #666666" transform="translate(323.331662 322.235562) scale(0.1 -0.1)">
       <defs>
        <path id="DejaVuSansMono-38" d="M 1925 2216 
Q 1503 2216 1273 1980 
Q 1044 1744 1044 1313 
Q 1044 881 1276 642 
Q 1509 403 1925 403 
Q 2350 403 2579 639 
Q 2809 875 2809 1313 
Q 2809 1741 2576 1978 
Q 2344 2216 1925 2216 
z
M 1375 2478 
Q 972 2581 745 2862 
Q 519 3144 519 3541 
Q 519 4097 897 4423 
Q 1275 4750 1925 4750 
Q 2578 4750 2956 4423 
Q 3334 4097 3334 3541 
Q 3334 3144 3107 2862 
Q 2881 2581 2478 2478 
Q 2947 2375 3195 2062 
Q 3444 1750 3444 1253 
Q 3444 622 3041 265 
Q 2638 -91 1925 -91 
Q 1213 -91 811 264 
Q 409 619 409 1247 
Q 409 1747 657 2061 
Q 906 2375 1375 2478 
z
M 1147 3481 
Q 1147 3106 1347 2909 
Q 1547 2713 1925 2713 
Q 2306 2713 2506 2909 
Q 2706 3106 2706 3481 
Q 2706 3863 2507 4063 
Q 2309 4263 1925 4263 
Q 1547 4263 1347 4061 
Q 1147 3859 1147 3481 
z
" transform="scale(0.015625)"/>
       </defs>
       <use xlink:href="#DejaVuSansMono-38"/>
      </g>
     </g>
    </g>
    <g id="xtick_5">
     <g id="line2d_5">
      <g>
       <use xlink:href="#m3774e5e546" x="398.487273" y="307.584" style="fill: #666666; stroke: #666666; stroke-width: 0.8"/>
      </g>
     </g>
     <g id="text_5">
      <!-- 10 -->
      <g style="fill: #666666" transform="translate(392.46696 322.235562) scale(0.1 -0.1)">
       <defs>
        <path id="DejaVuSansMono-31" d="M 844 531 
L 1825 531 
L 1825 4097 
L 769 3859 
L 769 4434 
L 1819 4666 
L 2450 4666 
L 2450 531 
L 3419 531 
L 3419 0 
L 844 0 
L 844 531 
z
" transform="scale(0.015625)"/>
        <path id="DejaVuSansMono-30" d="M 1509 2344 
Q 1509 2516 1629 2641 
Q 1750 2766 1919 2766 
Q 2094 2766 2219 2641 
Q 2344 2516 2344 2344 
Q 2344 2169 2220 2047 
Q 2097 1925 1919 1925 
Q 1744 1925 1626 2044 
Q 1509 2163 1509 2344 
z
M 1925 4250 
Q 1484 4250 1267 3775 
Q 1050 3300 1050 2328 
Q 1050 1359 1267 884 
Q 1484 409 1925 409 
Q 2369 409 2586 884 
Q 2803 1359 2803 2328 
Q 2803 3300 2586 3775 
Q 2369 4250 1925 4250 
z
M 1925 4750 
Q 2672 4750 3055 4137 
Q 3438 3525 3438 2328 
Q 3438 1134 3055 521 
Q 2672 -91 1925 -91 
Q 1178 -91 797 521 
Q 416 1134 416 2328 
Q 416 3525 797 4137 
Q 1178 4750 1925 4750 
z
" transform="scale(0.015625)"/>
       </defs>
       <use xlink:href="#DejaVuSansMono-31"/>
       <use xlink:href="#DejaVuSansMono-30" transform="translate(60.205078 0)"/>
      </g>
     </g>
    </g>
    <g id="text_6">
     <!-- Input Size N -->
     <g style="fill: #888888" transform="translate(200.16 335.574625) scale(0.1 -0.1)">
      <defs>
       <path id="GeistMono-Regular-49" d="M 512 0 
L 512 538 
L 1645 538 
L 1645 4006 
L 512 4006 
L 512 4544 
L 3328 4544 
L 3328 4006 
L 2195 4006 
L 2195 538 
L 3328 538 
L 3328 0 
L 512 0 
z
" transform="scale(0.015625)"/>
       <path id="GeistMono-Regular-6e" d="M 538 0 
L 538 3392 
L 1030 3392 
L 1050 2528 
L 986 2586 
Q 1050 2886 1219 3081 
Q 1389 3277 1625 3373 
Q 1862 3469 2125 3469 
Q 2515 3469 2774 3296 
Q 3034 3123 3168 2832 
Q 3302 2541 3302 2182 
L 3302 0 
L 2765 0 
L 2765 2029 
Q 2765 2502 2579 2748 
Q 2394 2995 2010 2995 
Q 1747 2995 1536 2883 
Q 1325 2771 1200 2556 
Q 1075 2342 1075 2029 
L 1075 0 
L 538 0 
z
" transform="scale(0.015625)"/>
       <path id="GeistMono-Regular-70" d="M 512 -960 
L 512 3392 
L 1011 3392 
L 1024 2624 
L 947 2662 
Q 1075 3059 1372 3264 
Q 1670 3469 2061 3469 
Q 2566 3469 2889 3219 
Q 3213 2970 3366 2566 
Q 3520 2163 3520 1696 
Q 3520 1229 3366 825 
Q 3213 422 2889 172 
Q 2566 -77 2061 -77 
Q 1798 -77 1571 12 
Q 1344 102 1187 262 
Q 1030 422 973 640 
L 1050 730 
L 1050 -960 
L 512 -960 
z
M 2010 435 
Q 2451 435 2704 768 
Q 2957 1101 2957 1696 
Q 2957 2291 2704 2624 
Q 2451 2957 2010 2957 
Q 1715 2957 1500 2816 
Q 1286 2675 1168 2393 
Q 1050 2112 1050 1696 
Q 1050 1280 1165 998 
Q 1280 717 1497 576 
Q 1715 435 2010 435 
z
" transform="scale(0.015625)"/>
       <path id="GeistMono-Regular-75" d="M 1683 -77 
Q 1178 -77 877 265 
Q 576 608 576 1210 
L 576 3392 
L 1114 3392 
L 1114 1357 
Q 1114 864 1290 630 
Q 1466 397 1830 397 
Q 2227 397 2457 656 
Q 2688 915 2688 1370 
L 2688 3392 
L 3226 3392 
L 3226 0 
L 2714 0 
L 2714 838 
L 2797 794 
Q 2694 378 2406 150 
Q 2118 -77 1683 -77 
z
" transform="scale(0.015625)"/>
       <path id="GeistMono-Regular-74" d="M 2419 0 
Q 1926 0 1683 230 
Q 1440 461 1440 934 
L 1440 4186 
L 1978 4186 
L 1978 934 
Q 1978 698 2086 586 
Q 2195 474 2419 474 
L 3328 474 
L 3328 0 
L 2419 0 
z
M 320 2918 
L 320 3392 
L 3328 3392 
L 3328 2918 
L 320 2918 
z
" transform="scale(0.015625)"/>
       <path id="GeistMono-Regular-20" transform="scale(0.015625)"/>
       <path id="GeistMono-Regular-53" d="M 1990 -102 
Q 1510 -102 1139 96 
Q 768 294 544 643 
Q 320 992 282 1453 
L 858 1491 
Q 902 1152 1052 915 
Q 1203 678 1443 556 
Q 1683 435 2003 435 
Q 2323 435 2540 515 
Q 2758 595 2870 752 
Q 2982 909 2982 1126 
Q 2982 1344 2883 1507 
Q 2784 1670 2512 1811 
Q 2240 1952 1709 2099 
Q 1235 2234 944 2394 
Q 653 2554 521 2784 
Q 390 3014 390 3354 
Q 390 3738 572 4029 
Q 755 4320 1094 4483 
Q 1434 4646 1901 4646 
Q 2368 4646 2701 4457 
Q 3034 4269 3229 3942 
Q 3424 3616 3475 3200 
L 2899 3162 
Q 2861 3437 2739 3651 
Q 2618 3866 2406 3987 
Q 2195 4109 1888 4109 
Q 1466 4109 1216 3907 
Q 966 3706 966 3379 
Q 966 3168 1059 3030 
Q 1152 2893 1389 2787 
Q 1626 2682 2054 2560 
Q 2611 2406 2940 2214 
Q 3270 2022 3414 1756 
Q 3558 1491 3558 1114 
Q 3558 755 3360 480 
Q 3162 205 2810 51 
Q 2458 -102 1990 -102 
z
" transform="scale(0.015625)"/>
       <path id="GeistMono-Regular-69" d="M 1875 0 
L 1875 3392 
L 2413 3392 
L 2413 0 
L 1875 0 
z
M 512 0 
L 512 474 
L 3584 474 
L 3584 0 
L 512 0 
z
M 576 2918 
L 576 3392 
L 2413 3392 
L 2413 2918 
L 576 2918 
z
M 1822 3923 
L 1822 4550 
L 2386 4550 
L 2386 3923 
L 1822 3923 
z
" transform="scale(0.015625)"/>
       <path id="GeistMono-Regular-7a" d="M 525 0 
L 525 538 
L 2675 2918 
L 589 2918 
L 589 3392 
L 3264 3392 
L 3264 2854 
L 1114 474 
L 3315 474 
L 3315 0 
L 525 0 
z
" transform="scale(0.015625)"/>
       <path id="GeistMono-Regular-65" d="M 1978 -77 
Q 1498 -77 1149 140 
Q 800 358 611 758 
Q 422 1158 422 1696 
Q 422 2234 611 2630 
Q 800 3027 1142 3248 
Q 1485 3469 1952 3469 
Q 2394 3469 2733 3261 
Q 3072 3053 3264 2656 
Q 3456 2259 3456 1690 
L 3456 1530 
L 986 1530 
Q 1018 986 1277 710 
Q 1536 435 1978 435 
Q 2310 435 2524 592 
Q 2739 749 2822 1005 
L 3398 960 
Q 3264 506 2889 214 
Q 2515 -77 1978 -77 
z
M 986 2003 
L 2867 2003 
Q 2829 2496 2579 2726 
Q 2330 2957 1952 2957 
Q 1562 2957 1309 2717 
Q 1056 2477 986 2003 
z
" transform="scale(0.015625)"/>
       <path id="GeistMono-Regular-4e" d="M 448 0 
L 448 4544 
L 1229 4544 
L 2842 627 
L 2842 4544 
L 3392 4544 
L 3392 0 
L 2611 0 
L 998 3917 
L 998 0 
L 448 0 
z
" transform="scale(0.015625)"/>
      </defs>
      <use xlink:href="#GeistMono-Regular-49"/>
      <use xlink:href="#GeistMono-Regular-6e" transform="translate(59.999985 0)"/>
      <use xlink:href="#GeistMono-Regular-70" transform="translate(119.999969 0)"/>
      <use xlink:href="#GeistMono-Regular-75" transform="translate(179.999954 0)"/>
      <use xlink:href="#GeistMono-Regular-74" transform="translate(239.999939 0)"/>
      <use xlink:href="#GeistMono-Regular-20" transform="translate(299.999924 0)"/>
      <use xlink:href="#GeistMono-Regular-53" transform="translate(359.999908 0)"/>
      <use xlink:href="#GeistMono-Regular-69" transform="translate(419.999893 0)"/>
      <use xlink:href="#GeistMono-Regular-7a" transform="translate(479.999878 0)"/>
      <use xlink:href="#GeistMono-Regular-65" transform="translate(539.999863 0)"/>
      <use xlink:href="#GeistMono-Regular-20" transform="translate(599.999847 0)"/>
      <use xlink:href="#GeistMono-Regular-4e" transform="translate(659.999832 0)"/>
     </g>
    </g>
   </g>
   <g id="matplotlib.axis_2">
    <g id="ytick_1">
     <g id="line2d_6">
      <defs>
       <path id="m79dac0939d" d="M 0 0 
L -3.5 0 
" style="stroke: #666666; stroke-width: 0.8"/>
      </defs>
      <g>
       <use xlink:href="#m79dac0939d" x="57.6" y="295.488" style="fill: #666666; stroke: #666666; stroke-width: 0.8"/>
      </g>
     </g>
     <g id="text_7">
      <!-- 0 -->
      <g style="fill: #666666" transform="translate(44.579687 299.313781) scale(0.1 -0.1)">
       <use xlink:href="#DejaVuSansMono-30"/>
      </g>
     </g>
    </g>
    <g id="ytick_2">
     <g id="line2d_7">
      <g>
       <use xlink:href="#m79dac0939d" x="57.6" y="247.104" style="fill: #666666; stroke: #666666; stroke-width: 0.8"/>
      </g>
     </g>
     <g id="text_8">
      <!-- 20 -->
      <g style="fill: #666666" transform="translate(38.559375 250.929781) scale(0.1 -0.1)">
       <use xlink:href="#DejaVuSansMono-32"/>
       <use xlink:href="#DejaVuSansMono-30" transform="translate(60.205078 0)"/>
      </g>
     </g>
    </g>
    <g id="ytick_3">
     <g id="line2d_8">
      <g>
       <use xlink:href="#m79dac0939d" x="57.6" y="198.72" style="fill: #666666; stroke: #666666; stroke-width: 0.8"/>
      </g>
     </g>
     <g id="text_9">
      <!-- 40 -->
      <g style="fill: #666666" transform="translate(38.559375 202.545781) scale(0.1 -0.1)">
       <use xlink:href="#DejaVuSansMono-34"/>
       <use xlink:href="#DejaVuSansMono-30" transform="translate(60.205078 0)"/>
      </g>
     </g>
    </g>
    <g id="ytick_4">
     <g id="line2d_9">
      <g>
       <use xlink:href="#m79dac0939d" x="57.6" y="150.336" style="fill: #666666; stroke: #666666; stroke-width: 0.8"/>
      </g>
     </g>
     <g id="text_10">
      <!-- 60 -->
      <g style="fill: #666666" transform="translate(38.559375 154.161781) scale(0.1 -0.1)">
       <use xlink:href="#DejaVuSansMono-36"/>
       <use xlink:href="#DejaVuSansMono-30" transform="translate(60.205078 0)"/>
      </g>
     </g>
    </g>
    <g id="ytick_5">
     <g id="line2d_10">
      <g>
       <use xlink:href="#m79dac0939d" x="57.6" y="101.952" style="fill: #666666; stroke: #666666; stroke-width: 0.8"/>
      </g>
     </g>
     <g id="text_11">
      <!-- 80 -->
      <g style="fill: #666666" transform="translate(38.559375 105.777781) scale(0.1 -0.1)">
       <use xlink:href="#DejaVuSansMono-38"/>
       <use xlink:href="#DejaVuSansMono-30" transform="translate(60.205078 0)"/>
      </g>
     </g>
    </g>
    <g id="ytick_6">
     <g id="line2d_11">
      <g>
       <use xlink:href="#m79dac0939d" x="57.6" y="53.568" style="fill: #666666; stroke: #666666; stroke-width: 0.8"/>
      </g>
     </g>
     <g id="text_12">
      <!-- 100 -->
      <g style="fill: #666666" transform="translate(32.539062 57.393781) scale(0.1 -0.1)">
       <use xlink:href="#DejaVuSansMono-31"/>
       <use xlink:href="#DejaVuSansMono-30" transform="translate(60.205078 0)"/>
       <use xlink:href="#DejaVuSansMono-30" transform="translate(120.410156 0)"/>
      </g>
     </g>
    </g>
    <g id="text_13">
     <!-- Complexity -->
     <g style="fill: #888888" transform="translate(33.312 34.64976) scale(0.1 -0.1)">
      <defs>
       <path id="GeistMono-Regular-43" d="M 1933 -102 
Q 1389 -102 1011 186 
Q 634 474 438 1005 
Q 243 1536 243 2266 
Q 243 3002 438 3533 
Q 634 4064 1011 4355 
Q 1389 4646 1933 4646 
Q 2534 4646 2956 4252 
Q 3379 3859 3520 3155 
L 2931 3117 
Q 2822 3610 2556 3859 
Q 2291 4109 1933 4109 
Q 1568 4109 1321 3894 
Q 1075 3680 947 3267 
Q 819 2854 819 2266 
Q 819 1683 947 1273 
Q 1075 864 1321 649 
Q 1568 435 1933 435 
Q 2330 435 2605 710 
Q 2880 986 2976 1530 
L 3558 1498 
Q 3437 749 3008 323 
Q 2579 -102 1933 -102 
z
" transform="scale(0.015625)"/>
       <path id="GeistMono-Regular-6f" d="M 1920 -77 
Q 1453 -77 1104 140 
Q 755 358 563 758 
Q 371 1158 371 1696 
Q 371 2240 563 2637 
Q 755 3034 1104 3251 
Q 1453 3469 1920 3469 
Q 2387 3469 2736 3251 
Q 3085 3034 3277 2637 
Q 3469 2240 3469 1696 
Q 3469 1158 3277 758 
Q 3085 358 2736 140 
Q 2387 -77 1920 -77 
z
M 1920 435 
Q 2387 435 2646 771 
Q 2906 1107 2906 1696 
Q 2906 2285 2646 2621 
Q 2387 2957 1920 2957 
Q 1453 2957 1193 2621 
Q 934 2285 934 1696 
Q 934 1107 1193 771 
Q 1453 435 1920 435 
z
" transform="scale(0.015625)"/>
       <path id="GeistMono-Regular-6d" d="M 256 0 
L 256 3392 
L 749 3392 
L 768 2637 
L 704 2650 
Q 762 3027 950 3248 
Q 1139 3469 1434 3469 
Q 1734 3469 1897 3251 
Q 2061 3034 2099 2611 
L 2035 2611 
Q 2093 3008 2294 3238 
Q 2496 3469 2803 3469 
Q 3213 3469 3398 3187 
Q 3584 2906 3584 2253 
L 3584 0 
L 3046 0 
L 3046 2176 
Q 3046 2630 2950 2812 
Q 2854 2995 2650 2995 
Q 2515 2995 2412 2908 
Q 2310 2822 2249 2636 
Q 2189 2451 2189 2163 
L 2189 0 
L 1651 0 
L 1651 2176 
Q 1651 2611 1558 2803 
Q 1466 2995 1254 2995 
Q 1120 2995 1017 2908 
Q 915 2822 854 2636 
Q 794 2451 794 2163 
L 794 0 
L 256 0 
z
" transform="scale(0.015625)"/>
       <path id="GeistMono-Regular-6c" d="M 1747 0 
L 1747 3635 
Q 1747 3840 1632 3955 
Q 1517 4070 1312 4070 
L 512 4070 
L 512 4544 
L 1338 4544 
Q 1805 4544 2045 4304 
Q 2285 4064 2285 3597 
L 2285 0 
L 1747 0 
z
M 384 0 
L 384 474 
L 3456 474 
L 3456 0 
L 384 0 
z
" transform="scale(0.015625)"/>
       <path id="GeistMono-Regular-78" d="M 346 0 
L 1594 1741 
L 410 3392 
L 1037 3392 
L 1926 2112 
L 2797 3392 
L 3437 3392 
L 2259 1728 
L 3494 0 
L 2867 0 
L 1926 1370 
L 986 0 
L 346 0 
z
" transform="scale(0.015625)"/>
       <path id="GeistMono-Regular-79" d="M 883 -960 
L 883 -486 
L 1274 -486 
Q 1453 -486 1539 -432 
Q 1626 -378 1670 -256 
L 1792 64 
L 1606 64 
L 346 3392 
L 934 3392 
L 1965 563 
L 2931 3392 
L 3520 3392 
L 2144 -429 
Q 2048 -704 1856 -832 
Q 1664 -960 1325 -960 
L 883 -960 
z
" transform="scale(0.015625)"/>
      </defs>
      <use xlink:href="#GeistMono-Regular-43"/>
      <use xlink:href="#GeistMono-Regular-6f" transform="translate(59.999985 0)"/>
      <use xlink:href="#GeistMono-Regular-6d" transform="translate(119.999969 0)"/>
      <use xlink:href="#GeistMono-Regular-70" transform="translate(179.999954 0)"/>
      <use xlink:href="#GeistMono-Regular-6c" transform="translate(239.999939 0)"/>
      <use xlink:href="#GeistMono-Regular-65" transform="translate(299.999924 0)"/>
      <use xlink:href="#GeistMono-Regular-78" transform="translate(359.999908 0)"/>
      <use xlink:href="#GeistMono-Regular-69" transform="translate(419.999893 0)"/>
      <use xlink:href="#GeistMono-Regular-74" transform="translate(479.999878 0)"/>
      <use xlink:href="#GeistMono-Regular-79" transform="translate(539.999863 0)"/>
     </g>
    </g>
   </g>
   <g id="line2d_12">
    <path d="M 73.832727 293.0688 
L 77.112066 292.608952 
L 80.391405 292.109117 
L 83.670744 291.569296 
L 86.950083 290.989488 
L 90.229421 290.369693 
L 93.50876 289.709911 
L 96.788099 289.010142 
L 100.067438 288.270387 
L 103.346777 287.490645 
L 106.626116 286.670916 
L 109.905455 285.8112 
L 113.184793 284.911498 
L 116.464132 283.971808 
L 119.743471 282.992132 
L 123.02281 281.972469 
L 126.302149 280.91282 
L 129.581488 279.813183 
L 132.860826 278.67356 
L 136.140165 277.49395 
L 139.419504 276.274354 
L 142.698843 275.01477 
L 145.978182 273.7152 
L 149.257521 272.375643 
L 152.53686 270.996099 
L 155.816198 269.576569 
L 159.095537 268.117051 
L 162.374876 266.617547 
L 165.654215 265.078056 
L 168.933554 263.498579 
L 172.212893 261.879114 
L 175.492231 260.219663 
L 178.77157 258.520225 
L 182.050909 256.7808 
L 185.330248 255.001388 
L 188.609587 253.18199 
L 191.888926 251.322605 
L 195.168264 249.423233 
L 198.447603 247.483874 
L 201.726942 245.504529 
L 205.006281 243.485197 
L 208.28562 241.425878 
L 211.564959 239.326572 
L 214.844298 237.187279 
L 218.123636 235.008 
L 221.402975 232.788734 
L 224.682314 230.529481 
L 227.961653 228.230241 
L 231.240992 225.891015 
L 234.520331 223.511802 
L 237.799669 221.092602 
L 241.079008 218.633415 
L 244.358347 216.134241 
L 247.637686 213.595081 
L 250.917025 211.015934 
L 254.196364 208.3968 
L 257.475702 205.737679 
L 260.755041 203.038572 
L 264.03438 200.299478 
L 267.313719 197.520397 
L 270.593058 194.701329 
L 273.872397 191.842274 
L 277.151736 188.943233 
L 280.431074 186.004205 
L 283.710413 183.02519 
L 286.989752 180.006188 
L 290.269091 176.9472 
L 293.54843 173.848225 
L 296.827769 170.709263 
L 300.107107 167.530314 
L 303.386446 164.311379 
L 306.665785 161.052456 
L 309.945124 157.753547 
L 313.224463 154.414651 
L 316.503802 151.035769 
L 319.78314 147.616899 
L 323.062479 144.158043 
L 326.341818 140.6592 
L 329.621157 137.12037 
L 332.900496 133.541554 
L 336.179835 129.92275 
L 339.459174 126.26396 
L 342.738512 122.565183 
L 346.017851 118.82642 
L 349.29719 115.047669 
L 352.576529 111.228932 
L 355.855868 107.370208 
L 359.135207 103.471498 
L 362.414545 99.5328 
L 365.693884 95.554116 
L 368.973223 91.535445 
L 372.252562 87.476787 
L 375.531901 83.378142 
L 378.81124 79.239511 
L 382.090579 75.060893 
L 385.369917 70.842288 
L 388.649256 66.583696 
L 391.928595 62.285117 
L 395.207934 57.946552 
L 398.487273 53.568 
" clip-path="url(#p7aecae5f55)" style="fill: none; stroke: #61afef; stroke-width: 1.5; stroke-linecap: square"/>
   </g>
   <g id="line2d_13">
    <path d="M 73.832727 293.0688 
L 77.112066 292.731521 
L 80.391405 292.37988 
L 83.670744 292.01444 
L 86.950083 291.635704 
L 90.229421 291.244124 
L 93.50876 290.840107 
L 96.788099 290.424026 
L 100.067438 289.99622 
L 103.346777 289.557003 
L 106.626116 289.106663 
L 109.905455 288.645469 
L 113.184793 288.173671 
L 116.464132 287.691501 
L 119.743471 287.199179 
L 123.02281 286.696909 
L 126.302149 286.184885 
L 129.581488 285.663289 
L 132.860826 285.132293 
L 136.140165 284.592062 
L 139.419504 284.04275 
L 142.698843 283.484505 
L 145.978182 282.917468 
L 149.257521 282.341773 
L 152.53686 281.757549 
L 155.816198 281.164917 
L 159.095537 280.563997 
L 162.374876 279.9549 
L 165.654215 279.337735 
L 168.933554 278.712606 
L 172.212893 278.079613 
L 175.492231 277.438853 
L 178.77157 276.790419 
L 182.050909 276.1344 
L 185.330248 275.470884 
L 188.609587 274.799953 
L 191.888926 274.12169 
L 195.168264 273.436172 
L 198.447603 272.743475 
L 201.726942 272.043674 
L 205.006281 271.336839 
L 208.28562 270.62304 
L 211.564959 269.902344 
L 214.844298 269.174817 
L 218.123636 268.440522 
L 221.402975 267.69952 
L 224.682314 266.951873 
L 227.961653 266.197638 
L 231.240992 265.436873 
L 234.520331 264.669633 
L 237.799669 263.895973 
L 241.079008 263.115944 
L 244.358347 262.3296 
L 247.637686 261.536989 
L 250.917025 260.738162 
L 254.196364 259.933166 
L 257.475702 259.122049 
L 260.755041 258.304855 
L 264.03438 257.481631 
L 267.313719 256.652419 
L 270.593058 255.817263 
L 273.872397 254.976205 
L 277.151736 254.129285 
L 280.431074 253.276545 
L 283.710413 252.418023 
L 286.989752 251.553758 
L 290.269091 250.683789 
L 293.54843 249.808152 
L 296.827769 248.926884 
L 300.107107 248.04002 
L 303.386446 247.147596 
L 306.665785 246.249646 
L 309.945124 245.346204 
L 313.224463 244.437303 
L 316.503802 243.522976 
L 319.78314 242.603254 
L 323.062479 241.678169 
L 326.341818 240.747753 
L 329.621157 239.812035 
L 332.900496 238.871045 
L 336.179835 237.924812 
L 339.459174 236.973367 
L 342.738512 236.016736 
L 346.017851 235.054948 
L 349.29719 234.088031 
L 352.576529 233.116011 
L 355.855868 232.138915 
L 359.135207 231.156769 
L 362.414545 230.1696 
L 365.693884 229.177432 
L 368.973223 228.180291 
L 372.252562 227.178202 
L 375.531901 226.171188 
L 378.81124 225.159273 
L 382.090579 224.142482 
L 385.369917 223.120838 
L 388.649256 222.094362 
L 391.928595 221.06308 
L 395.207934 220.027011 
L 398.487273 218.986179 
" clip-path="url(#p7aecae5f55)" style="fill: none; stroke: #c678dd; stroke-width: 1.5; stroke-linecap: square"/>
   </g>
   <g id="line2d_14">
    <path d="M 73.832727 295.488 
L 77.112066 295.258366 
L 80.391405 295.010383 
L 83.670744 294.745466 
L 86.950083 294.464827 
L 90.229421 294.169515 
L 93.50876 293.860449 
L 96.788099 293.538438 
L 100.067438 293.204203 
L 103.346777 292.858387 
L 106.626116 292.50157 
L 109.905455 292.134277 
L 113.184793 291.756983 
L 116.464132 291.370125 
L 119.743471 290.9741 
L 123.02281 290.569275 
L 126.302149 290.15599 
L 129.581488 289.734558 
L 132.860826 289.305269 
L 136.140165 288.868395 
L 139.419504 288.424189 
L 142.698843 287.972887 
L 145.978182 287.514711 
L 149.257521 287.04987 
L 152.53686 286.57856 
L 155.816198 286.100965 
L 159.095537 285.61726 
L 162.374876 285.12761 
L 165.654215 284.632172 
L 168.933554 284.131095 
L 172.212893 283.624518 
L 175.492231 283.112577 
L 178.77157 282.5954 
L 182.050909 282.073107 
L 185.330248 281.545815 
L 188.609587 281.013636 
L 191.888926 280.476675 
L 195.168264 279.935035 
L 198.447603 279.388812 
L 201.726942 278.838101 
L 205.006281 278.282991 
L 208.28562 277.723568 
L 211.564959 277.159916 
L 214.844298 276.592114 
L 218.123636 276.020239 
L 221.402975 275.444365 
L 224.682314 274.864564 
L 227.961653 274.280904 
L 231.240992 273.693452 
L 234.520331 273.102272 
L 237.799669 272.507427 
L 241.079008 271.908976 
L 244.358347 271.306978 
L 247.637686 270.701488 
L 250.917025 270.092562 
L 254.196364 269.480253 
L 257.475702 268.864611 
L 260.755041 268.245687 
L 264.03438 267.623528 
L 267.313719 266.998182 
L 270.593058 266.369694 
L 273.872397 265.738108 
L 277.151736 265.103467 
L 280.431074 264.465814 
L 283.710413 263.825189 
L 286.989752 263.181631 
L 290.269091 262.535179 
L 293.54843 261.885871 
L 296.827769 261.233744 
L 300.107107 260.578832 
L 303.386446 259.921171 
L 306.665785 259.260795 
L 309.945124 258.597737 
L 313.224463 257.93203 
L 316.503802 257.263703 
L 319.78314 256.59279 
L 323.062479 255.919319 
L 326.341818 255.24332 
L 329.621157 254.564822 
L 332.900496 253.883853 
L 336.179835 253.20044 
L 339.459174 252.51461 
L 342.738512 251.82639 
L 346.017851 251.135805 
L 349.29719 250.44288 
L 352.576529 249.74764 
L 355.855868 249.050109 
L 359.135207 248.350311 
L 362.414545 247.648269 
L 365.693884 246.944005 
L 368.973223 246.237542 
L 372.252562 245.528901 
L 375.531901 244.818104 
L 378.81124 244.105172 
L 382.090579 243.390125 
L 385.369917 242.672983 
L 388.649256 241.953767 
L 391.928595 241.232495 
L 395.207934 240.509187 
L 398.487273 239.783861 
" clip-path="url(#p7aecae5f55)" style="fill: none; stroke: #98c379; stroke-width: 1.5; stroke-linecap: square"/>
   </g>
   <g id="line2d_15">
    <path d="M 73.832727 293.0688 
L 77.112066 292.848873 
L 80.391405 292.628945 
L 83.670744 292.409018 
L 86.950083 292.189091 
L 90.229421 291.969164 
L 93.50876 291.749236 
L 96.788099 291.529309 
L 100.067438 291.309382 
L 103.346777 291.089455 
L 106.626116 290.869527 
L 109.905455 290.6496 
L 113.184793 290.429673 
L 116.464132 290.209745 
L 119.743471 289.989818 
L 123.02281 289.769891 
L 126.302149 289.549964 
L 129.581488 289.330036 
L 132.860826 289.110109 
L 136.140165 288.890182 
L 139.419504 288.670255 
L 142.698843 288.450327 
L 145.978182 288.2304 
L 149.257521 288.010473 
L 152.53686 287.790545 
L 155.816198 287.570618 
L 159.095537 287.350691 
L 162.374876 287.130764 
L 165.654215 286.910836 
L 168.933554 286.690909 
L 172.212893 286.470982 
L 175.492231 286.251055 
L 178.77157 286.031127 
L 182.050909 285.8112 
L 185.330248 285.591273 
L 188.609587 285.371345 
L 191.888926 285.151418 
L 195.168264 284.931491 
L 198.447603 284.711564 
L 201.726942 284.491636 
L 205.006281 284.271709 
L 208.28562 284.051782 
L 211.564959 283.831855 
L 214.844298 283.611927 
L 218.123636 283.392 
L 221.402975 283.172073 
L 224.682314 282.952145 
L 227.961653 282.732218 
L 231.240992 282.512291 
L 234.520331 282.292364 
L 237.799669 282.072436 
L 241.079008 281.852509 
L 244.358347 281.632582 
L 247.637686 281.412655 
L 250.917025 281.192727 
L 254.196364 280.9728 
L 257.475702 280.752873 
L 260.755041 280.532945 
L 264.03438 280.313018 
L 267.313719 280.093091 
L 270.593058 279.873164 
L 273.872397 279.653236 
L 277.151736 279.433309 
L 280.431074 279.213382 
L 283.710413 278.993455 
L 286.989752 278.773527 
L 290.269091 278.5536 
L 293.54843 278.333673 
L 296.827769 278.113745 
L 300.107107 277.893818 
L 303.386446 277.673891 
L 306.665785 277.453964 
L 309.945124 277.234036 
L 313.224463 277.014109 
L 316.503802 276.794182 
L 319.78314 276.574255 
L 323.062479 276.354327 
L 326.341818 276.1344 
L 329.621157 275.914473 
L 332.900496 275.694545 
L 336.179835 275.474618 
L 339.459174 275.254691 
L 342.738512 275.034764 
L 346.017851 274.814836 
L 349.29719 274.594909 
L 352.576529 274.374982 
L 355.855868 274.155055 
L 359.135207 273.935127 
L 362.414545 273.7152 
L 365.693884 273.495273 
L 368.973223 273.275345 
L 372.252562 273.055418 
L 375.531901 272.835491 
L 378.81124 272.615564 
L 382.090579 272.395636 
L 385.369917 272.175709 
L 388.649256 271.955782 
L 391.928595 271.735855 
L 395.207934 271.515927 
L 398.487273 271.296 
" clip-path="url(#p7aecae5f55)" style="fill: none; stroke: #e06c75; stroke-width: 1.5; stroke-linecap: square"/>
   </g>
   <g id="line2d_16">
    <path d="M 73.832727 295.488 
L 77.112066 295.277502 
L 80.391405 295.083863 
L 83.670744 294.904581 
L 86.950083 294.737673 
L 90.229421 294.581542 
L 93.50876 294.434879 
L 96.788099 294.296601 
L 100.067438 294.165801 
L 103.346777 294.041713 
L 106.626116 293.92368 
L 109.905455 293.811138 
L 113.184793 293.703601 
L 116.464132 293.60064 
L 119.743471 293.501884 
L 123.02281 293.407001 
L 126.302149 293.3157 
L 129.581488 293.227719 
L 132.860826 293.142826 
L 136.140165 293.060812 
L 139.419504 292.981486 
L 142.698843 292.90468 
L 145.978182 292.830237 
L 149.257521 292.758017 
L 152.53686 292.68789 
L 155.816198 292.619739 
L 159.095537 292.553456 
L 162.374876 292.48894 
L 165.654215 292.4261 
L 168.933554 292.364851 
L 172.212893 292.305115 
L 175.492231 292.246818 
L 178.77157 292.189893 
L 182.050909 292.134277 
L 185.330248 292.07991 
L 188.609587 292.026739 
L 191.888926 291.974711 
L 195.168264 291.923779 
L 198.447603 291.873897 
L 201.726942 291.825022 
L 205.006281 291.777116 
L 208.28562 291.730139 
L 211.564959 291.684058 
L 214.844298 291.638838 
L 218.123636 291.594448 
L 221.402975 291.550857 
L 224.682314 291.508039 
L 227.961653 291.465965 
L 231.240992 291.42461 
L 234.520331 291.38395 
L 237.799669 291.343962 
L 241.079008 291.304625 
L 244.358347 291.265917 
L 247.637686 291.227818 
L 250.917025 291.190311 
L 254.196364 291.153375 
L 257.475702 291.116996 
L 260.755041 291.081155 
L 264.03438 291.045838 
L 267.313719 291.011029 
L 270.593058 290.976713 
L 273.872397 290.942878 
L 277.151736 290.909509 
L 280.431074 290.876594 
L 283.710413 290.844121 
L 286.989752 290.812078 
L 290.269091 290.780454 
L 293.54843 290.749238 
L 296.827769 290.71842 
L 300.107107 290.687989 
L 303.386446 290.657937 
L 306.665785 290.628253 
L 309.945124 290.598929 
L 313.224463 290.569956 
L 316.503802 290.541326 
L 319.78314 290.513031 
L 323.062479 290.485063 
L 326.341818 290.457415 
L 329.621157 290.430079 
L 332.900496 290.403049 
L 336.179835 290.376317 
L 339.459174 290.349877 
L 342.738512 290.323724 
L 346.017851 290.29785 
L 349.29719 290.272249 
L 352.576529 290.246917 
L 355.855868 290.221847 
L 359.135207 290.197035 
L 362.414545 290.172474 
L 365.693884 290.148161 
L 368.973223 290.124089 
L 372.252562 290.100254 
L 375.531901 290.076652 
L 378.81124 290.053278 
L 382.090579 290.030127 
L 385.369917 290.007196 
L 388.649256 289.984481 
L 391.928595 289.961976 
L 395.207934 289.939679 
L 398.487273 289.917586 
" clip-path="url(#p7aecae5f55)" style="fill: none; stroke: #d19a66; stroke-width: 1.5; stroke-linecap: square"/>
   </g>
   <g id="patch_3">
    <path d="M 57.6 307.584 
L 57.6 41.472 
" style="fill: none; stroke: #333333; stroke-width: 0.8; stroke-linejoin: miter; stroke-linecap: square"/>
   </g>
   <g id="patch_4">
    <path d="M 414.72 307.584 
L 414.72 41.472 
" style="fill: none; stroke: #333333; stroke-width: 0.8; stroke-linejoin: miter; stroke-linecap: square"/>
   </g>
   <g id="patch_5">
    <path d="M 57.6 307.584 
L 414.72 307.584 
" style="fill: none; stroke: #333333; stroke-width: 0.8; stroke-linejoin: miter; stroke-linecap: square"/>
   </g>
   <g id="patch_6">
    <path d="M 57.6 41.472 
L 414.72 41.472 
" style="fill: none; stroke: #333333; stroke-width: 0.8; stroke-linejoin: miter; stroke-linecap: square"/>
   </g>
   <g id="text_14">
    <!-- 01_COMPLEXITY_ANALYSIS -->
    <g style="fill: #f9f9fb" transform="translate(170.16 35.472) scale(0.1 -0.1)">
     <defs>
      <path id="GeistMono-Regular-30" d="M 768 653 
L 2560 3917 
L 3072 3891 
L 1280 627 
L 768 653 
z
M 1920 -102 
Q 1427 -102 1065 186 
Q 704 474 512 1005 
Q 320 1536 320 2266 
Q 320 3002 512 3533 
Q 704 4064 1065 4355 
Q 1427 4646 1920 4646 
Q 2419 4646 2777 4355 
Q 3136 4064 3328 3533 
Q 3520 3002 3520 2266 
Q 3520 1536 3328 1005 
Q 3136 474 2777 186 
Q 2419 -102 1920 -102 
z
M 1920 435 
Q 2240 435 2467 659 
Q 2694 883 2819 1296 
Q 2944 1709 2944 2266 
Q 2944 2835 2819 3248 
Q 2694 3661 2467 3885 
Q 2240 4109 1920 4109 
Q 1606 4109 1376 3885 
Q 1146 3661 1021 3248 
Q 896 2835 896 2266 
Q 896 1709 1021 1296 
Q 1146 883 1376 659 
Q 1606 435 1920 435 
z
" transform="scale(0.015625)"/>
      <path id="GeistMono-Regular-31" d="M 1818 0 
L 1818 3366 
L 627 3366 
L 627 3840 
L 1242 3840 
Q 1485 3840 1635 3910 
Q 1786 3981 1853 4134 
Q 1920 4288 1920 4544 
L 2368 4544 
L 2368 0 
L 1818 0 
z
M 384 0 
L 384 538 
L 3456 538 
L 3456 0 
L 384 0 
z
" transform="scale(0.015625)"/>
      <path id="GeistMono-Regular-5f" d="M 512 -499 
L 512 0 
L 3328 0 
L 3328 -499 
L 512 -499 
z
" transform="scale(0.015625)"/>
      <path id="GeistMono-Regular-4f" d="M 1920 -102 
Q 1382 -102 1008 173 
Q 634 448 438 979 
Q 243 1510 243 2266 
Q 243 3034 438 3565 
Q 634 4096 1008 4371 
Q 1382 4646 1920 4646 
Q 2458 4646 2832 4371 
Q 3206 4096 3401 3565 
Q 3597 3034 3597 2266 
Q 3597 1510 3401 979 
Q 3206 448 2832 173 
Q 2458 -102 1920 -102 
z
M 1920 435 
Q 2272 435 2518 643 
Q 2765 851 2893 1260 
Q 3021 1670 3021 2266 
Q 3021 2861 2893 3273 
Q 2765 3686 2518 3897 
Q 2272 4109 1920 4109 
Q 1568 4109 1321 3897 
Q 1075 3686 947 3273 
Q 819 2861 819 2266 
Q 819 1670 947 1260 
Q 1075 851 1321 643 
Q 1568 435 1920 435 
z
" transform="scale(0.015625)"/>
      <path id="GeistMono-Regular-4d" d="M 1677 512 
L 819 4032 
L 870 4032 
L 870 0 
L 320 0 
L 320 4544 
L 1152 4544 
L 2048 806 
L 1792 806 
L 2688 4544 
L 3520 4544 
L 3520 0 
L 2970 0 
L 2970 4032 
L 3021 4032 
L 2163 512 
L 1677 512 
z
" transform="scale(0.015625)"/>
      <path id="GeistMono-Regular-50" d="M 576 0 
L 576 4544 
L 1958 4544 
Q 2432 4544 2784 4377 
Q 3136 4211 3328 3900 
Q 3520 3590 3520 3155 
Q 3520 2720 3328 2409 
Q 3136 2099 2784 1932 
Q 2432 1766 1958 1766 
L 1126 1766 
L 1126 0 
L 576 0 
z
M 1126 2304 
L 1894 2304 
Q 2432 2304 2688 2525 
Q 2944 2746 2944 3155 
Q 2944 3571 2688 3788 
Q 2432 4006 1894 4006 
L 1126 4006 
L 1126 2304 
z
" transform="scale(0.015625)"/>
      <path id="GeistMono-Regular-4c" d="M 640 0 
L 640 4544 
L 1190 4544 
L 1190 256 
L 915 538 
L 3456 538 
L 3456 0 
L 640 0 
z
" transform="scale(0.015625)"/>
      <path id="GeistMono-Regular-45" d="M 576 0 
L 576 4544 
L 3341 4544 
L 3341 4006 
L 1126 4006 
L 1126 2541 
L 3264 2541 
L 3264 2016 
L 1126 2016 
L 1126 538 
L 3392 538 
L 3392 0 
L 576 0 
z
" transform="scale(0.015625)"/>
      <path id="GeistMono-Regular-58" d="M 320 0 
L 1574 2285 
L 346 4544 
L 986 4544 
L 1926 2720 
L 2867 4544 
L 3494 4544 
L 2266 2278 
L 3520 0 
L 2880 0 
L 1914 1850 
L 947 0 
L 320 0 
z
" transform="scale(0.015625)"/>
      <path id="GeistMono-Regular-54" d="M 1645 0 
L 1645 4006 
L 256 4006 
L 256 4544 
L 3584 4544 
L 3584 4006 
L 2195 4006 
L 2195 0 
L 1645 0 
z
" transform="scale(0.015625)"/>
      <path id="GeistMono-Regular-59" d="M 1651 0 
L 1651 1856 
L 256 4544 
L 883 4544 
L 1920 2419 
L 2957 4544 
L 3584 4544 
L 2202 1856 
L 2202 0 
L 1651 0 
z
" transform="scale(0.015625)"/>
      <path id="GeistMono-Regular-41" d="M 166 0 
L 1549 4544 
L 2291 4544 
L 3674 0 
L 3085 0 
L 1920 4045 
L 755 0 
L 166 0 
z
M 864 1293 
L 1056 1830 
L 2784 1830 
L 2976 1293 
L 864 1293 
z
" transform="scale(0.015625)"/>
     </defs>
     <use xlink:href="#GeistMono-Regular-30"/>
     <use xlink:href="#GeistMono-Regular-31" transform="translate(59.999985 0)"/>
     <use xlink:href="#GeistMono-Regular-5f" transform="translate(119.999969 0)"/>
     <use xlink:href="#GeistMono-Regular-43" transform="translate(179.999954 0)"/>
     <use xlink:href="#GeistMono-Regular-4f" transform="translate(239.999939 0)"/>
     <use xlink:href="#GeistMono-Regular-4d" transform="translate(299.999924 0)"/>
     <use xlink:href="#GeistMono-Regular-50" transform="translate(359.999908 0)"/>
     <use xlink:href="#GeistMono-Regular-4c" transform="translate(419.999893 0)"/>
     <use xlink:href="#GeistMono-Regular-45" transform="translate(479.999878 0)"/>
     <use xlink:href="#GeistMono-Regular-58" transform="translate(539.999863 0)"/>
     <use xlink:href="#GeistMono-Regular-49" transform="translate(599.999847 0)"/>
     <use xlink:href="#GeistMono-Regular-54" transform="translate(659.999832 0)"/>
     <use xlink:href="#GeistMono-Regular-59" transform="translate(719.999817 0)"/>
     <use xlink:href="#GeistMono-Regular-5f" transform="translate(779.999802 0)"/>
     <use xlink:href="#GeistMono-Regular-41" transform="translate(839.999786 0)"/>
     <use xlink:href="#GeistMono-Regular-4e" transform="translate(899.999771 0)"/>
     <use xlink:href="#GeistMono-Regular-41" transform="translate(959.999756 0)"/>
     <use xlink:href="#GeistMono-Regular-4c" transform="translate(1019.999741 0)"/>
     <use xlink:href="#GeistMono-Regular-59" transform="translate(1079.999725 0)"/>
     <use xlink:href="#GeistMono-Regular-53" transform="translate(1139.99971 0)"/>
     <use xlink:href="#GeistMono-Regular-49" transform="translate(1199.999695 0)"/>
     <use xlink:href="#GeistMono-Regular-53" transform="translate(1259.99968 0)"/>
    </g>
   </g>
   <g id="legend_1">
    <g id="line2d_17">
     <path d="M 66.6 54.072 
L 76.6 54.072 
L 86.6 54.072 
" style="fill: none; stroke: #61afef; stroke-width: 1.5; stroke-linecap: square"/>
    </g>
    <g id="text_15">
     <!-- O(N^2) NAIVE -->
     <g style="fill: #f9f9fb" transform="translate(94.6 57.572) scale(0.1 -0.1)">
      <defs>
       <path id="GeistMono-Regular-28" d="M 2125 -704 
Q 1683 -38 1459 656 
Q 1235 1350 1235 2048 
Q 1235 3469 2125 4800 
L 2605 4800 
Q 1792 3418 1792 2048 
Q 1792 1363 1997 675 
Q 2202 -13 2605 -704 
L 2125 -704 
z
" transform="scale(0.015625)"/>
       <path id="GeistMono-Regular-5e" d="M 813 2451 
L 1581 4307 
L 2259 4307 
L 3027 2451 
L 2502 2451 
L 1882 3917 
L 1958 3917 
L 1338 2451 
L 813 2451 
z
" transform="scale(0.015625)"/>
       <path id="GeistMono-Regular-32" d="M 320 0 
Q 320 480 470 867 
Q 621 1254 1001 1606 
Q 1382 1958 2061 2317 
Q 2374 2483 2566 2624 
Q 2758 2765 2848 2925 
Q 2938 3085 2938 3315 
Q 2938 3552 2835 3728 
Q 2733 3904 2531 4006 
Q 2330 4109 2029 4109 
Q 1549 4109 1270 3859 
Q 992 3610 922 3149 
L 346 3187 
Q 422 3853 857 4249 
Q 1293 4646 2029 4646 
Q 2496 4646 2829 4480 
Q 3162 4314 3338 4016 
Q 3514 3718 3514 3328 
Q 3514 2982 3398 2729 
Q 3283 2477 3011 2259 
Q 2739 2042 2266 1792 
Q 1856 1574 1577 1350 
Q 1299 1126 1155 918 
Q 1011 710 998 538 
L 3520 538 
L 3520 0 
L 320 0 
z
" transform="scale(0.015625)"/>
       <path id="GeistMono-Regular-29" d="M 1715 -704 
L 1235 -704 
Q 1638 -13 1843 675 
Q 2048 1363 2048 2048 
Q 2048 3418 1235 4800 
L 1715 4800 
Q 2605 3469 2605 2048 
Q 2605 1350 2381 656 
Q 2157 -38 1715 -704 
z
" transform="scale(0.015625)"/>
       <path id="GeistMono-Regular-56" d="M 1562 0 
L 192 4544 
L 781 4544 
L 1997 358 
L 1843 358 
L 3059 4544 
L 3648 4544 
L 2278 0 
L 1562 0 
z
" transform="scale(0.015625)"/>
      </defs>
      <use xlink:href="#GeistMono-Regular-4f"/>
      <use xlink:href="#GeistMono-Regular-28" transform="translate(59.999985 0)"/>
      <use xlink:href="#GeistMono-Regular-4e" transform="translate(119.999969 0)"/>
      <use xlink:href="#GeistMono-Regular-5e" transform="translate(179.999954 0)"/>
      <use xlink:href="#GeistMono-Regular-32" transform="translate(239.999939 0)"/>
      <use xlink:href="#GeistMono-Regular-29" transform="translate(299.999924 0)"/>
      <use xlink:href="#GeistMono-Regular-20" transform="translate(359.999908 0)"/>
      <use xlink:href="#GeistMono-Regular-4e" transform="translate(419.999893 0)"/>
      <use xlink:href="#GeistMono-Regular-41" transform="translate(479.999878 0)"/>
      <use xlink:href="#GeistMono-Regular-49" transform="translate(539.999863 0)"/>
      <use xlink:href="#GeistMono-Regular-56" transform="translate(599.999847 0)"/>
      <use xlink:href="#GeistMono-Regular-45" transform="translate(659.999832 0)"/>
     </g>
    </g>
    <g id="line2d_18">
     <path d="M 66.6 67.672 
L 76.6 67.672 
L 86.6 67.672 
" style="fill: none; stroke: #c678dd; stroke-width: 1.5; stroke-linecap: square"/>
    </g>
    <g id="text_16">
     <!-- O(N^1.5) NAIVE -->
     <g style="fill: #f9f9fb" transform="translate(94.6 71.172) scale(0.1 -0.1)">
      <defs>
       <path id="GeistMono-Regular-2e" d="M 1523 0 
L 1523 781 
L 2317 781 
L 2317 0 
L 1523 0 
z
" transform="scale(0.015625)"/>
       <path id="GeistMono-Regular-35" d="M 1907 -102 
Q 1466 -102 1136 58 
Q 806 218 611 506 
Q 416 794 384 1171 
L 960 1210 
Q 1011 826 1264 630 
Q 1517 435 1907 435 
Q 2349 435 2614 707 
Q 2880 979 2880 1459 
Q 2880 1779 2765 2012 
Q 2650 2246 2435 2371 
Q 2221 2496 1920 2496 
Q 1651 2496 1404 2365 
Q 1158 2234 1050 1990 
L 461 1990 
L 762 4544 
L 3181 4544 
L 3181 4006 
L 1267 4006 
L 1062 2330 
L 960 2432 
Q 1062 2630 1228 2758 
Q 1395 2886 1596 2953 
Q 1798 3021 1997 3021 
Q 2432 3021 2761 2819 
Q 3091 2618 3273 2266 
Q 3456 1914 3456 1459 
Q 3456 1005 3257 649 
Q 3059 294 2710 96 
Q 2362 -102 1907 -102 
z
" transform="scale(0.015625)"/>
      </defs>
      <use xlink:href="#GeistMono-Regular-4f"/>
      <use xlink:href="#GeistMono-Regular-28" transform="translate(59.999985 0)"/>
      <use xlink:href="#GeistMono-Regular-4e" transform="translate(119.999969 0)"/>
      <use xlink:href="#GeistMono-Regular-5e" transform="translate(179.999954 0)"/>
      <use xlink:href="#GeistMono-Regular-31" transform="translate(239.999939 0)"/>
      <use xlink:href="#GeistMono-Regular-2e" transform="translate(299.999924 0)"/>
      <use xlink:href="#GeistMono-Regular-35" transform="translate(359.999908 0)"/>
      <use xlink:href="#GeistMono-Regular-29" transform="translate(419.999893 0)"/>
      <use xlink:href="#GeistMono-Regular-20" transform="translate(479.999878 0)"/>
      <use xlink:href="#GeistMono-Regular-4e" transform="translate(539.999863 0)"/>
      <use xlink:href="#GeistMono-Regular-41" transform="translate(599.999847 0)"/>
      <use xlink:href="#GeistMono-Regular-49" transform="translate(659.999832 0)"/>
      <use xlink:href="#GeistMono-Regular-56" transform="translate(719.999817 0)"/>
      <use xlink:href="#GeistMono-Regular-45" transform="translate(779.999802 0)"/>
     </g>
    </g>
    <g id="line2d_19">
     <path d="M 66.6 81.672 
L 76.6 81.672 
L 86.6 81.672 
" style="fill: none; stroke: #98c379; stroke-width: 1.5; stroke-linecap: square"/>
    </g>
    <g id="text_17">
     <!-- O(N log N) OPTIMIZED -->
     <g style="fill: #f9f9fb" transform="translate(94.6 85.172) scale(0.1 -0.1)">
      <defs>
       <path id="GeistMono-Regular-67" d="M 1901 -1037 
Q 1536 -1037 1241 -915 
Q 947 -794 748 -570 
Q 550 -346 480 -51 
L 1043 -13 
Q 1120 -250 1315 -387 
Q 1510 -525 1901 -525 
Q 2362 -525 2608 -339 
Q 2854 -154 2854 218 
L 2854 768 
Q 2733 499 2464 339 
Q 2195 179 1862 179 
Q 1434 179 1098 390 
Q 762 602 573 973 
Q 384 1344 384 1824 
Q 384 2310 569 2678 
Q 755 3046 1084 3257 
Q 1414 3469 1837 3469 
Q 2195 3469 2480 3302 
Q 2765 3136 2880 2854 
L 2880 3392 
L 3392 3392 
L 3392 230 
Q 3392 -166 3213 -451 
Q 3034 -736 2701 -886 
Q 2368 -1037 1901 -1037 
z
M 1888 691 
Q 2323 691 2585 995 
Q 2848 1299 2854 1824 
Q 2861 2176 2742 2429 
Q 2624 2682 2403 2819 
Q 2182 2957 1888 2957 
Q 1440 2957 1193 2653 
Q 947 2349 947 1824 
Q 947 1299 1200 995 
Q 1453 691 1888 691 
z
" transform="scale(0.015625)"/>
       <path id="GeistMono-Regular-5a" d="M 320 0 
L 320 550 
L 2854 4006 
L 435 4006 
L 435 4544 
L 3469 4544 
L 3469 3994 
L 934 538 
L 3520 538 
L 3520 0 
L 320 0 
z
" transform="scale(0.015625)"/>
       <path id="GeistMono-Regular-44" d="M 576 0 
L 576 4544 
L 1651 4544 
Q 2240 4544 2678 4278 
Q 3117 4013 3357 3504 
Q 3597 2995 3597 2266 
Q 3597 1536 3357 1030 
Q 3117 525 2678 262 
Q 2240 0 1651 0 
L 576 0 
z
M 1126 538 
L 1619 538 
Q 2285 538 2653 970 
Q 3021 1402 3021 2266 
Q 3021 3130 2653 3568 
Q 2285 4006 1619 4006 
L 1126 4006 
L 1126 538 
z
" transform="scale(0.015625)"/>
      </defs>
      <use xlink:href="#GeistMono-Regular-4f"/>
      <use xlink:href="#GeistMono-Regular-28" transform="translate(59.999985 0)"/>
      <use xlink:href="#GeistMono-Regular-4e" transform="translate(119.999969 0)"/>
      <use xlink:href="#GeistMono-Regular-20" transform="translate(179.999954 0)"/>
      <use xlink:href="#GeistMono-Regular-6c" transform="translate(239.999939 0)"/>
      <use xlink:href="#GeistMono-Regular-6f" transform="translate(299.999924 0)"/>
      <use xlink:href="#GeistMono-Regular-67" transform="translate(359.999908 0)"/>
      <use xlink:href="#GeistMono-Regular-20" transform="translate(419.999893 0)"/>
      <use xlink:href="#GeistMono-Regular-4e" transform="translate(479.999878 0)"/>
      <use xlink:href="#GeistMono-Regular-29" transform="translate(539.999863 0)"/>
      <use xlink:href="#GeistMono-Regular-20" transform="translate(599.999847 0)"/>
      <use xlink:href="#GeistMono-Regular-4f" transform="translate(659.999832 0)"/>
      <use xlink:href="#GeistMono-Regular-50" transform="translate(719.999817 0)"/>
      <use xlink:href="#GeistMono-Regular-54" transform="translate(779.999802 0)"/>
      <use xlink:href="#GeistMono-Regular-49" transform="translate(839.999786 0)"/>
      <use xlink:href="#GeistMono-Regular-4d" transform="translate(899.999771 0)"/>
      <use xlink:href="#GeistMono-Regular-49" transform="translate(959.999756 0)"/>
      <use xlink:href="#GeistMono-Regular-5a" transform="translate(1019.999741 0)"/>
      <use xlink:href="#GeistMono-Regular-45" transform="translate(1079.999725 0)"/>
      <use xlink:href="#GeistMono-Regular-44" transform="translate(1139.99971 0)"/>
     </g>
    </g>
    <g id="line2d_20">
     <path d="M 66.6 95.392313 
L 76.6 95.392313 
L 86.6 95.392313 
" style="fill: none; stroke: #e06c75; stroke-width: 1.5; stroke-linecap: square"/>
    </g>
    <g id="text_18">
     <!-- O(N) OPTIMIZED -->
     <g style="fill: #f9f9fb" transform="translate(94.6 98.892313) scale(0.1 -0.1)">
      <use xlink:href="#GeistMono-Regular-4f"/>
      <use xlink:href="#GeistMono-Regular-28" transform="translate(59.999985 0)"/>
      <use xlink:href="#GeistMono-Regular-4e" transform="translate(119.999969 0)"/>
      <use xlink:href="#GeistMono-Regular-29" transform="translate(179.999954 0)"/>
      <use xlink:href="#GeistMono-Regular-20" transform="translate(239.999939 0)"/>
      <use xlink:href="#GeistMono-Regular-4f" transform="translate(299.999924 0)"/>
      <use xlink:href="#GeistMono-Regular-50" transform="translate(359.999908 0)"/>
      <use xlink:href="#GeistMono-Regular-54" transform="translate(419.999893 0)"/>
      <use xlink:href="#GeistMono-Regular-49" transform="translate(479.999878 0)"/>
      <use xlink:href="#GeistMono-Regular-4d" transform="translate(539.999863 0)"/>
      <use xlink:href="#GeistMono-Regular-49" transform="translate(599.999847 0)"/>
      <use xlink:href="#GeistMono-Regular-5a" transform="translate(659.999832 0)"/>
      <use xlink:href="#GeistMono-Regular-45" transform="translate(719.999817 0)"/>
      <use xlink:href="#GeistMono-Regular-44" transform="translate(779.999802 0)"/>
     </g>
    </g>
    <g id="line2d_21">
     <path d="M 66.6 109.392313 
L 76.6 109.392313 
L 86.6 109.392313 
" style="fill: none; stroke: #d19a66; stroke-width: 1.5; stroke-linecap: square"/>
    </g>
    <g id="text_19">
     <!-- O(log N) OPTIMIZED -->
     <g style="fill: #f9f9fb" transform="translate(94.6 112.892313) scale(0.1 -0.1)">
      <use xlink:href="#GeistMono-Regular-4f"/>
      <use xlink:href="#GeistMono-Regular-28" transform="translate(59.999985 0)"/>
      <use xlink:href="#GeistMono-Regular-6c" transform="translate(119.999969 0)"/>
      <use xlink:href="#GeistMono-Regular-6f" transform="translate(179.999954 0)"/>
      <use xlink:href="#GeistMono-Regular-67" transform="translate(239.999939 0)"/>
      <use xlink:href="#GeistMono-Regular-20" transform="translate(299.999924 0)"/>
      <use xlink:href="#GeistMono-Regular-4e" transform="translate(359.999908 0)"/>
      <use xlink:href="#GeistMono-Regular-29" transform="translate(419.999893 0)"/>
      <use xlink:href="#GeistMono-Regular-20" transform="translate(479.999878 0)"/>
      <use xlink:href="#GeistMono-Regular-4f" transform="translate(539.999863 0)"/>
      <use xlink:href="#GeistMono-Regular-50" transform="translate(599.999847 0)"/>
      <use xlink:href="#GeistMono-Regular-54" transform="translate(659.999832 0)"/>
      <use xlink:href="#GeistMono-Regular-49" transform="translate(719.999817 0)"/>
      <use xlink:href="#GeistMono-Regular-4d" transform="translate(779.999802 0)"/>
      <use xlink:href="#GeistMono-Regular-49" transform="translate(839.999786 0)"/>
      <use xlink:href="#GeistMono-Regular-5a" transform="translate(899.999771 0)"/>
      <use xlink:href="#GeistMono-Regular-45" transform="translate(959.999756 0)"/>
      <use xlink:href="#GeistMono-Regular-44" transform="translate(1019.999741 0)"/>
     </g>
    </g>
   </g>
  </g>
 </g>
 <defs>
  <clipPath id="p7aecae5f55">
   <rect x="57.6" y="41.472" width="357.12" height="266.112"/>
  </clipPath>
 </defs>
</svg>
